<svg xmlns="http://www.w3.org/2000/svg" viewBox="0 0 104 104" role="img" aria-label="Circuit">
  <rect x="6" y="6" width="92" height="92" rx="20" fill="#FFFFFF" stroke="#E5E7EB" stroke-width="1.25"/>
  <g fill="none" stroke="#121212" stroke-width="2.25" stroke-linecap="round" stroke-linejoin="round">
    <circle cx="52" cy="40" r="11"/>
    <path d="M36 62c4-8 24-8 32 0"/>
    <path d="M41 38h22" stroke-width="3.5"/>
  </g>
  <g fill="#121212">
    <path d="M41 35.5h22v5.5a2.5 2.5 0 0 1-2.5 2.5h-17a2.5 2.5 0 0 1-2.5-2.5z"/>
  </g>
  <g fill="#E8B931">
    <path d="M30 30l1.8 3.6 4 .6-2.9 2.8.7 4-3.6-1.9-3.6 1.9.7-4-2.9-2.8 4-.6z"/>
    <path d="M74 28l1.2 2.4 2.7.4-1.9 1.9.5 2.7-2.4-1.3-2.4 1.3.5-2.7-1.9-1.9 2.7-.4z"/>
    <path d="M72 58l1.4 2.8 3.1.5-2.3 2.2.5 3.1-2.8-1.5-2.8 1.5.5-3.1-2.3-2.2 3.1-.5z"/>
  </g>
</svg>
